<?xml version="1.0" encoding="utf-8"?>
<!-- Generator: Adobe Illustrator 15.0.0, SVG Export Plug-In . SVG Version: 6.00 Build 0)  -->
<!DOCTYPE svg PUBLIC "-//W3C//DTD SVG 1.1//EN" "http://www.w3.org/Graphics/SVG/1.1/DTD/svg11.dtd">
<svg version="1.1" id="Layer_1" xmlns="http://www.w3.org/2000/svg" xmlns:xlink="http://www.w3.org/1999/xlink" x="0px" y="0px"
	 width="600px" height="170.667px" viewBox="0 0 600 170.667" enable-background="new 0 0 600 170.667" xml:space="preserve">
<g>
	<g>
		<g>
			<path fill="#93B2BE" d="M77.607,72.545h-4.342c-3.257-10.855-11.036-14.654-22.071-14.654c-16.644,0-24.604,13.207-24.604,24.604
				c0,22.072,14.654,31.117,31.479,31.117c8.683,0,16.824-3.256,23.88-7.779l-2.895,18.271c-8.141,5.066-19.357,6.875-30.754,6.875
				c-26.413,0-46.313-16.463-46.313-44.143c0-31.658,27.136-44.865,51.378-44.865c7.417,0,15.377,0.905,22.433,3.438L77.607,72.545z
				"/>
			<path fill="#93B2BE" d="M115.057,118.676c0,4.705,6.694,6.695,10.674,7.057v3.438c-7.237-0.543-14.473-1.086-22.072-1.086
				c-7.779,0-14.472,0.543-21.166,1.086v-3.438c4.884,0,7.959-1.449,7.959-11.217V60.062c0-7.236-3.979-8.324-8.321-8.324v-3.436
				c9.588-1.99,21.527-4.885,31.84-9.045l-0.362,18.452h0.362c3.98-10.854,14.834-15.738,23.88-15.738
				c1.085,0,3.799,0.362,6.332,0.905l1.086,26.955h-1.99c-2.895-5.969-6.332-8.682-13.025-8.682
				c-10.855,0-15.197,11.576-15.197,20.984V118.676z"/>
			<path fill="#93B2BE" d="M153.409,47.941c9.769-3.438,20.262-5.97,32.563-5.97c20.986,0,39.077,5.427,39.077,31.479v43.6
				c0,6.15,3.618,8.684,9.407,8.684v3.438c-5.427-0.543-10.854-1.086-16.101-1.086c-4.885,0-10.312,0.543-15.74,1.086v-13.75
				l-0.362,0.182c-9.045,13.205-17.186,15.377-32.744,15.377s-26.593-9.588-26.593-25.326c0-24.424,23.698-27.139,39.619-29.127
				c16.644-1.99,17.909-2.533,17.909-8.141c0-9.229-7.779-12.666-16.462-12.666c-14.473,0-21.347,3.619-27.86,16.826h-3.438
				L153.409,47.941z M200.445,86.836c-26.593,4.342-32.925,8.684-32.925,17.188c0,7.236,5.608,11.035,12.844,11.035
				c8.685,0,20.081-8.322,20.081-19.719V86.836z"/>
			<path fill="#93B2BE" d="M239.162,125.732c3.075,0,8.322-1.268,8.322-7.961V60.062c0-7.236-3.98-8.324-8.322-8.324v-3.436
				c11.939-1.447,25.689-5.246,32.926-9.045v77.61c0,8.141,4.522,8.865,8.321,8.865v3.438c-6.874-0.543-13.749-1.086-20.443-1.086
				c-6.874,0-13.568,0.543-20.804,1.086V125.732z M258.881,35.82c-8.684,0-14.653-5.608-14.653-14.292
				c0-8.141,4.885-14.654,13.749-14.654c9.227,0,14.112,6.151,14.112,14.835C272.088,29.488,267.022,35.82,258.881,35.82z"/>
			<path fill="#93B2BE" d="M377.74,125.732c4.704,0,10.312-1.809,10.312-7.238V57.529h-12.845v-7.236
				c11.94-1.086,13.026-2.715,13.026-12.122C388.234,5.246,411.752,0,420.979,0c5.608,0,9.045,0.361,12.664,1.266l1.81,20.082
				h-3.439c-1.447-3.076-4.16-5.427-8.32-5.427c-7.6,0-11.035,5.969-11.035,16.101V43.78H433.1v13.75h-20.442v58.252
				c0,8.143,7.417,9.951,15.014,9.951l0.002,3.438c-8.323-0.543-16.646-1.086-24.967-1.086c-8.322,0-16.644,0.543-24.966,1.086
				V125.732z"/>
			<path fill="#93B2BE" d="M472.537,130.979c-29.488,0-42.875-24.061-42.875-45.229c0-24.783,18.271-43.779,44.683-43.779
				c29.489,0,42.878,24.061,42.878,45.229C517.223,111.982,498.949,130.979,472.537,130.979z M475.25,116.145
				c11.939,0,17.368-12.303,17.368-22.434c0-13.568-3.617-35.82-20.986-35.82c-11.939,0-17.367,12.303-17.367,22.434
				C454.265,93.893,457.884,116.145,475.25,116.145z"/>
			<path fill="#93B2BE" d="M505.646,125.732c4.522-0.725,7.235-1.99,9.949-5.971l23.155-32.562l-18.452-30.574
				c-3.075-5.066-6.15-9.408-12.301-9.408V43.78c7.056,0.542,13.931,1.085,20.985,1.085s14.111-0.542,20.985-1.085v3.437
				c-3.256,0-5.971,0.905-5.971,2.533c0,0.905,0.905,3.077,2.353,5.065l7.96,11.58l8.502-12.664c0.905-1.447,1.81-2.896,1.81-3.981
				c0-1.809-2.714-2.713-5.971-2.713V43.78c5.791,0.542,11.579,1.085,17.368,1.085c5.788,0,11.578-0.542,17.005-1.085v3.437
				c-2.895,0-7.597,1.085-10.312,4.703l-20.08,28.041l24.604,38.896c2.353,3.617,6.513,6.332,10.312,6.875v3.438
				c-6.875-0.543-14.473-1.086-21.889-1.086c-7.418,0-14.835,0.543-22.434,1.086v-3.438c4.342,0,6.694-1.268,6.694-3.076
				s-1.448-3.98-3.8-7.779l-8.865-14.834l-11.396,17.006c-1.268,1.809-2.895,4.16-2.895,6.15s2.895,2.533,5.97,2.533v3.438
				c-5.427-0.543-11.035-1.086-16.464-1.086c-5.606,0-11.215,0.543-16.823,1.086V125.732z"/>
		</g>
	</g>
	<g>
		<path fill="#93B2BE" d="M367.988,156.172c-9.984,10.463-55.708,18.262-74.905,6.086c0.468-11.701,2.677-19.277,14.533-17.039
			c7.112,1.344,15.253,1.588,23.854,0.184c22.185-3.623,27.627-22.004-13.105-20.129c-40.733,1.875-39.144-16.32-39.144-16.32
			c0-3.359,1.24-8.137,4.953-9.904l13.445-6.373c-6.898-5.484-9.729-14.154-9.729-20.699c0-19.816,16.104-29.55,38.039-29.55
			c9.909,0,22.298,3.891,30.08,3.891c4.607,0,11.509-0.884,17.346-1.942l-3.895,12.915l-11.326,0.707
			c1.767,3.186,2.835,7.432,2.835,11.148c0,22.119-19.117,30.258-38.225,30.258c-11.322,0-15.569-1.594-18.399-2.832
			c-4.246,1.238-5.31,3.893-5.31,5.662c0,3.361,2.479,5.664,16.81,5.664c0,0,10.072-1.299,25.459,0.051
			C390.616,112.275,377.821,145.871,367.988,156.172z M325.579,85.953c9.195,0,13.445-6.723,13.445-14.156
			c0-11.322-6.543-16.986-14.688-16.986c-7.603,0-13.438,5.135-13.438,15.043C310.898,79.584,317.438,85.953,325.579,85.953z"/>
		<path fill="#FFFFFF" d="M306.188,144.938l-5.638,0.471l4.211,3.979l-6.549,0.469l5.147,5.148l-8.873-0.236l6.763,6.322
			l-8.167,1.168c0,0-18.728-10.301-9.833-30.432C290.276,140.723,300.572,143.998,306.188,144.938z"/>
	</g>
</g>
</svg>
