<?xml version="1.0" encoding="UTF-8"?>
<svg width="192px" height="182px" viewBox="0 0 192 182" version="1.1" xmlns="http://www.w3.org/2000/svg" xmlns:xlink="http://www.w3.org/1999/xlink">
    <title>Group</title>
    <g id="Page-1" stroke="none" stroke-width="1" fill="none" fill-rule="evenodd">
        <g id="Group" transform="translate(0.000000, 0.068359)">
            <path d="M76.75,174.787109 L67.1035156,169.967773 L8.09472656,151.873047 L16.2197266,151.873047 L0,142.317383 L17.9765625,128.475586 L2.59960938,133.931641 L28.1757813,71.8583984 L16.2197266,0 L74.5878906,27.1699219 L96,23.9365845 L117.412109,27.1699219 L175.780273,0 L163.824219,71.8583984 L189.400391,133.931641 L174.023437,128.475586 L192,142.317383 L175.780273,151.873047 L183.905273,151.873047 L124.896484,169.967773 L115.25,174.787109 L96,181.970703 L76.75,174.787109 Z" id="Combined-Shape" fill="#DC6200"></path>
            <path d="M69.0161133,168.468262 L15.9934998,152.938477 L18.9851685,151.950562 L4.00842285,142.936157 L36.5356445,141.036621 L72.1171875,134.945312 L88.0576172,144.734375 L96,145.94632 L103.942383,144.734375 L119.882813,134.945312 L155.464355,141.036621 L187.041016,143.974365 L173.014832,151.950562 L176.0065,152.938477 L122.983887,168.468262 L96,179.949524 L69.0161133,168.468262 Z" id="Combined-Shape" fill="#B0997A"></path>
            <polygon id="Path-2" fill="#24221C" points="86.8006185 143.931641 81 148.931641 96 168.01123 112 148.931641 105.27691 143.931641"></polygon>
            <path d="M63.0252616,122.965703 L59.9804688,119.965703 L57,113.921016 L57,101.963984 L59.9804688,95.0041406 L63.0654688,92.0041406 L66,91.9278796 L68.9345312,92.0041406 L72.0195312,95.0041406 L75,101.963984 L75,113.921016 L72.0195312,119.965703 L68.9747384,122.965703 L66,123.097578 L63.0252616,122.965703 Z" id="Combined-Shape" fill="#24221C"></path>
            <path d="M123.025262,122.965703 L119.980469,119.965703 L117,113.921016 L117,101.963984 L119.980469,95.0041406 L123.065469,92.0041406 L126,91.9278796 L128.934531,92.0041406 L132.019531,95.0041406 L135,101.963984 L135,113.921016 L132.019531,119.965703 L128.974738,122.965703 L126,123.097578 L123.025262,122.965703 Z" id="Combined-Shape" fill="#24221C"></path>
            <polygon id="Path-5" fill="#994400" points="19 3.93164062 29.871582 68.9316406 57 21.8647461"></polygon>
            <polygon id="Path-5" fill="#994400" transform="translate(154.000000, 36.431641) scale(-1, 1) translate(-154.000000, -36.431641) " points="135 3.93164062 145.871582 68.9316406 173 21.8647461"></polygon>
        </g>
    </g>
</svg>