<svg id="b446ad88-8648-403d-9f83-80ef5c8fae55" data-name="Layer 1" xmlns="http://www.w3.org/2000/svg" viewBox="0 0 510.246 483.593"><g id="a527e8b4-aae5-4b50-81a4-338c3cd200f9" data-name="Page-1"><g id="e819fdd4-b6bd-4967-99de-9ee66bcedd8e" data-name="Group"><path id="beed3f8d-ad8d-4500-ae9e-d8571e6931cc" data-name="Combined-Shape" d="M204.842,478.706,179.207,465.9,22.389,417.811H43.981L.877,392.417,48.65,355.632l-40.865,14.5,67.97-164.962L43.981,14.2,199.1,86.408,256,77.816l56.9,8.592L468.019,14.2,436.245,205.169l67.97,164.962-40.865-14.5,47.773,36.785-43.1,25.394h21.592L332.793,465.9l-25.635,12.808L256,497.8Z" transform="translate(-0.877 -14.203)" fill="#dc6200" fill-rule="evenodd"/><path id="e288b255-3921-4646-8ab4-5eaa6a51b1fc" data-name="Combined-Shape" d="M184.289,461.913,43.38,420.642l7.951-2.625-39.8-23.956,86.443-5.048,94.559-16.188,42.362,26.015L256,402.061l21.107-3.221,42.362-26.015,94.559,16.188,83.916,7.807-37.275,21.2,7.951,2.625L327.711,461.913,256,492.425Z" transform="translate(-0.877 -14.203)" fill="#b0997a" fill-rule="evenodd"/><polygon id="e47a3d8f-b96d-45cc-bb25-02b95c545c6f" data-name="Path-2" points="230.676 382.503 215.26 395.791 255.123 446.495 297.644 395.791 279.777 382.503 230.676 382.503" fill="#24221c" fill-rule="evenodd"/><path id="aa77734a-62b5-418e-8b5e-9c83b8ec1362" data-name="Combined-Shape" d="M168.369,340.989l-8.092-7.973-7.921-16.064V285.176l7.921-18.5,8.2-7.973,7.8-.2,7.8.2,8.2,7.973,7.921,18.5v31.776l-7.921,16.064-8.092,7.973-7.905.35Z" transform="translate(-0.877 -14.203)" fill="#24221c" fill-rule="evenodd"/><path id="e96a0d29-6590-42cc-87f3-587385a2fb5f" data-name="Combined-Shape" d="M327.821,340.989l-8.092-7.973-7.921-16.064V285.176l7.921-18.5,8.2-7.973,7.8-.2,7.8.2,8.2,7.973,7.921,18.5v31.776l-7.921,16.064-8.092,7.973-7.9.35Z" transform="translate(-0.877 -14.203)" fill="#24221c" fill-rule="evenodd"/><polygon id="bfad8bd0-c086-4833-9e08-41ed5151e8f0" data-name="Path-5" points="50.493 10.448 79.385 183.188 151.479 58.106 50.493 10.448" fill="#940" fill-rule="evenodd"/><polygon id="a6bc0608-1ca6-45f4-9010-1eb3f0e78446" data-name="Path-5" points="459.753 10.448 430.862 183.188 358.767 58.106 459.753 10.448" fill="#940" fill-rule="evenodd"/></g></g></svg>