<?xml version="1.0" encoding="UTF-8"?>
<svg width="597px" height="169px" viewBox="0 0 597 169" version="1.1" xmlns="http://www.w3.org/2000/svg" xmlns:xlink="http://www.w3.org/1999/xlink">
    <title>craig-logo</title>
    <g id="Page-1" stroke="none" stroke-width="1" fill="none" fill-rule="evenodd">
        <g id="craig-logo" transform="translate(0.987000, 0.000000)" fill-rule="nonzero">
            <path d="M183.985,41.971 C204.971,41.971 223.062,47.398 223.062,73.45 L223.062,117.05 C223.062,123.2 226.68,125.734 232.469,125.734 L232.469,129.172 C227.042,128.629 221.615,128.086 216.368,128.086 C211.483,128.086 206.056,128.629 200.628,129.172 L200.628,115.422 L200.266,115.604 C191.221,128.809 183.08,130.981 167.522,130.981 C151.964,130.981 140.929,121.393 140.929,105.655 C140.929,81.231 164.627,78.516 180.548,76.528 C197.192,74.538 198.457,73.995 198.457,68.387 C198.457,59.158 190.678,55.721 181.995,55.721 C167.522,55.721 160.648,59.34 154.135,72.547 L150.697,72.547 L151.422,47.941 C161.191,44.503 171.684,41.971 183.985,41.971 Z M51.378,41.971 C58.795,41.971 66.755,42.876 73.811,45.409 L75.62,72.545 L71.278,72.545 C68.021,61.69 60.242,57.891 49.207,57.891 C32.563,57.891 24.603,71.098 24.603,82.495 C24.603,104.567 39.257,113.612 56.082,113.612 C64.765,113.612 72.906,110.356 79.962,105.833 L77.067,124.104 C68.926,129.17 57.71,130.979 46.313,130.979 C19.9,130.979 2.84217094e-14,114.516 2.84217094e-14,86.836 C2.84217094e-14,55.178 27.136,41.971 51.378,41.971 Z M472.358,41.971 C501.847,41.971 515.236,66.032 515.236,87.2 C515.236,111.982 496.962,130.979 470.55,130.979 C441.062,130.979 427.675,106.918 427.675,85.75 C427.675,60.967 445.946,41.971 472.358,41.971 Z M111.984,39.257 L111.622,57.709 L111.984,57.709 C115.964,46.855 126.818,41.971 135.864,41.971 C136.949,41.971 139.663,42.333 142.196,42.876 L143.282,69.831 L141.292,69.831 C138.397,63.862 134.96,61.149 128.267,61.149 C117.412,61.149 113.07,72.725 113.07,82.133 L113.07,118.676 C113.07,123.381 119.764,125.371 123.744,125.733 L123.744,129.171 C116.507,128.628 109.271,128.085 101.672,128.085 C93.893,128.085 87.2,128.628 80.506,129.171 L80.506,125.733 C85.39,125.733 88.465,124.284 88.465,114.516 L88.465,60.062 C88.465,52.826 84.486,51.738 80.144,51.738 L80.144,48.302 C89.732,46.312 101.671,43.417 111.984,39.257 Z M418.992,0 C424.6,0 428.037,0.361 431.656,1.266 L433.466,21.348 L430.027,21.348 C428.58,18.272 425.867,15.921 421.707,15.921 C414.107,15.921 410.672,21.89 410.672,32.022 L410.672,43.78 L431.113,43.78 L431.113,57.53 L410.671,57.53 L410.671,115.782 C410.671,123.925 418.088,125.733 425.685,125.733 L425.687,129.171 C417.364,128.628 409.041,128.085 400.72,128.085 C392.398,128.085 384.076,128.628 375.754,129.171 L375.754,125.732 L375.753,125.732 C380.457,125.732 386.065,123.923 386.065,118.494 L386.065,57.529 L373.22,57.529 L373.22,50.293 C385.16,49.207 386.246,47.578 386.246,38.171 C386.247,5.246 409.765,0 418.992,0 Z M270.101,39.257 L270.101,116.867 C270.101,124.400463 273.973258,125.582634 277.561578,125.717122 L277.907809,125.727045 L277.907809,125.727045 L278.25143,125.731494 C278.308436,125.731839 278.365299,125.732 278.422,125.732 L278.422,129.17 C271.548,128.627 264.673,128.084 257.979,128.084 C251.105,128.084 244.411,128.627 237.175,129.17 L237.175,125.732 C240.25,125.732 245.497,124.464 245.497,117.771 L245.497,60.062 C245.497,52.826 241.517,51.738 237.175,51.738 L237.175,48.302 C249.114,46.855 262.864,43.056 270.101,39.257 Z M591.036,43.78 L591.036,47.217 C588.141,47.217 583.439,48.302 580.724,51.92 L560.644,79.961 L585.248,118.857 C587.601,122.474 591.761,125.189 595.56,125.732 L595.56,129.17 C588.685,128.627 581.087,128.084 573.671,128.084 C566.253,128.084 558.836,128.627 551.237,129.17 L551.237,125.732 C555.579,125.732 557.931,124.464 557.931,122.656 C557.931,120.848 556.483,118.676 554.131,114.877 L545.266,100.043 L533.87,117.049 C532.602,118.858 530.975,121.209 530.975,123.199 C530.975,125.189 533.87,125.732 536.945,125.732 L536.945,129.17 C531.518,128.627 525.91,128.084 520.481,128.084 C514.875,128.084 509.266,128.627 503.658,129.17 L503.658,125.732 L503.659,125.732 C508.181,125.007 510.894,123.742 513.608,119.761 L536.763,87.199 L518.311,56.625 C515.236,51.559 512.161,47.217 506.01,47.217 L506.01,43.78 C513.066,44.322 519.941,44.865 526.995,44.865 C534.049,44.865 541.106,44.323 547.98,43.78 L547.98,47.217 C544.724,47.217 542.009,48.122 542.009,49.75 C542.009,50.655 542.914,52.827 544.362,54.815 L552.322,66.395 L560.824,53.731 C561.729,52.284 562.634,50.835 562.634,49.75 C562.634,47.941 559.92,47.037 556.663,47.037 L556.663,43.78 C562.454,44.322 568.242,44.865 574.031,44.865 C579.819,44.865 585.609,44.323 591.036,43.78 Z M469.645,57.891 C457.706,57.891 452.278,70.194 452.278,80.325 C452.278,93.893 455.897,116.145 473.263,116.145 C485.202,116.145 490.631,103.842 490.631,93.711 C490.631,80.143 487.014,57.891 469.645,57.891 Z M198.458,86.836 C171.865,91.178 165.533,95.52 165.533,104.024 C165.533,111.26 171.141,115.059 178.377,115.059 C187.062,115.059 198.458,106.737 198.458,95.34 L198.458,86.836 Z M255.99,6.874 C265.217,6.874 270.102,13.025 270.102,21.709 C270.101,29.488 265.035,35.82 256.894,35.82 C248.21,35.82 242.241,30.212 242.241,21.528 C242.241,13.387 247.126,6.874 255.99,6.874 Z" id="Combined-Shape" fill="#FF5757"></path>
            <g id="Group" transform="translate(277.225677, 42.428000)">
                <path d="M88.7753231,113.744 C78.7913231,124.207 33.0673231,132.006 13.8703231,119.83 C14.3383231,108.129 16.5473231,100.553 28.4033231,102.791 C35.5153231,104.135 43.6563231,104.379 52.2573231,102.975 C74.4423231,99.352 79.8843231,80.971 39.1523231,82.846 C-1.5806769,84.721 0.00832309838,66.526 0.00832309838,66.526 C0.00832309838,63.167 1.2483231,58.389 4.9613231,56.622 L18.4063231,50.249 C11.5083231,44.765 8.6773231,36.095 8.6773231,29.55 C8.6773231,9.734 24.7813231,0 46.7163231,0 C56.6253231,0 69.0143231,3.891 76.7963231,3.891 C81.4033231,3.891 88.3053231,3.007 94.1423231,1.949 L90.2473231,14.864 L78.9213231,15.571 C80.6883231,18.757 81.7563231,23.003 81.7563231,26.719 C81.7563231,48.838 62.6393231,56.977 43.5313231,56.977 C32.2093231,56.977 27.9623231,55.383 25.1323231,54.145 C20.8863231,55.383 19.8223231,58.038 19.8223231,59.807 C19.8223231,63.168 22.3013231,65.471 36.6323231,65.471 C36.6323231,65.471 46.7043231,64.172 62.0913231,65.522 C111.403323,69.847 98.6083231,103.443 88.7753231,113.744 Z M46.3663231,43.525 C55.5613231,43.525 59.8113231,36.802 59.8113231,29.369 C59.8113231,18.047 53.2683231,12.383 45.1233231,12.383 C37.5203231,12.383 31.6853231,17.518 31.6853231,27.426 C31.6853231,37.156 38.2253231,43.525 46.3663231,43.525 Z" id="Shape" fill="#FF5757"></path>
                <path d="M26.9753231,102.51 L21.3373231,102.981 L25.5483231,106.96 L18.9993231,107.429 L24.1463231,112.577 L15.2733231,112.341 L22.0363231,118.663 L13.8693231,119.831 C13.8693231,119.831 -4.8586769,109.53 4.0363231,89.399 C11.0633231,98.295 21.3593231,101.57 26.9753231,102.51 Z" id="Path" fill="#FFF6DD"></path>
            </g>
        </g>
    </g>
</svg>