<?xml version="1.0" encoding="utf-8"?>
<!-- Generator: Adobe Illustrator 15.0.0, SVG Export Plug-In . SVG Version: 6.00 Build 0)  -->
<!DOCTYPE svg PUBLIC "-//W3C//DTD SVG 1.1//EN" "http://www.w3.org/Graphics/SVG/1.1/DTD/svg11.dtd">
<svg version="1.1" id="Layer_1" xmlns="http://www.w3.org/2000/svg" xmlns:xlink="http://www.w3.org/1999/xlink" x="0px" y="0px"
	 width="269.5px" height="78.5px" viewBox="0 0 269.5 78.5" enable-background="new 0 0 269.5 78.5" xml:space="preserve">
<path fill-rule="evenodd" clip-rule="evenodd" fill="#292B2A" d="M85.093,37.488c0-0.853-0.229-1.649-0.625-2.339L65.502,2.289
	C64.679,0.919,63.183,0,61.468,0c-0.007,0-0.013,0.001-0.02,0.001L61.447,0H23.63l-0.002,0.001C23.619,0.001,23.61,0,23.601,0
	c-1.848,0-3.443,1.067-4.213,2.617L0.619,35.159C0.228,35.846,0,36.64,0,37.488c0,0.865,0.237,1.674,0.645,2.37l16.036,27.745
	l2.935,5.083c0.823,1.37,2.319,2.289,4.033,2.289c0.007,0,0.014-0.001,0.021-0.001l0.002,0.001h37.816l0.003-0.001
	c0.008,0,0.017,0.001,0.026,0.001c1.848,0,3.443-1.067,4.214-2.616l3.478-6.091l15.229-26.393
	C84.852,39.174,85.093,38.36,85.093,37.488z"/>
<g>
	<path fill-rule="evenodd" clip-rule="evenodd" fill="#343735" d="M24.847,71.503c-1.181-0.016-2.249-0.631-2.862-1.652
		l-2.731-4.733L4.274,39.202c-0.307-0.524-0.468-1.116-0.468-1.713c0-0.587,0.155-1.168,0.447-1.68L21.781,5.416
		c0.609-1.22,1.774-1.944,3.069-1.944h35.284l0.025,0.003l0.105-0.004c1.157,0.001,2.245,0.619,2.867,1.654l17.705,30.678
		c0.294,0.513,0.451,1.097,0.451,1.686c0,0.603-0.164,1.197-0.473,1.719l-14.23,24.664l-3.25,5.692
		c-0.602,1.204-1.75,1.926-3.03,1.94h-0.342L24.847,71.503z"/>
	<path fill="#F1F2F2" d="M59.598,4.472l0.001,0.001h0.603l0.071,0c0.825,0.018,1.57,0.451,1.983,1.137l17.712,30.688
		c0.212,0.37,0.319,0.77,0.319,1.19c0,0.43-0.112,0.836-0.345,1.229L65.714,63.379l-3.249,5.689l-0.028,0.049l-0.025,0.051
		c-0.4,0.803-1.191,1.309-2.076,1.335l-0.005,0h-0.09l-0.554,0.001H25.745l-0.001-0.001h-0.829l-0.086,0
		c-0.82-0.022-1.559-0.454-1.969-1.136l-2.741-4.75L5.134,38.692c-0.218-0.372-0.328-0.777-0.328-1.204
		c0-0.419,0.106-0.817,0.311-1.177l17.53-30.396l0.031-0.053l0.028-0.055c0.399-0.803,1.19-1.309,2.076-1.334l0.006,0h0.088
		l0.554-0.001H59.598 M60.221,2.472c-0.006,0-0.013,0.001-0.019,0.001l-0.001-0.001H24.877l-0.002,0.001
		c-0.008,0-0.017-0.001-0.025-0.001c-1.726,0-3.216,0.997-3.936,2.444L3.385,35.312c-0.367,0.642-0.579,1.383-0.579,2.176
		c0,0.808,0.221,1.563,0.602,2.214l14.979,25.916l2.74,4.749c0.769,1.279,2.167,2.138,3.768,2.138c0.006,0,0.012-0.001,0.019-0.001
		l0.001,0.001h35.323l0.002-0.001c0.008,0,0.016,0.001,0.024,0.001c1.727,0,3.216-0.998,3.937-2.444l3.249-5.689l14.224-24.653
		c0.387-0.654,0.612-1.415,0.612-2.229c0-0.797-0.215-1.541-0.584-2.186L63.989,4.61C63.22,3.331,61.822,2.472,60.221,2.472
		L60.221,2.472z"/>
</g>
<path fill="#F1F2F2" d="M50.53,22.028h4.016v-8.127h-8.707c-5.288,0-9.575,4.287-9.575,9.574v4.863h-6.869v8.127h6.869v25.026
	h10.682V36.465h7.6v-8.127h-7.6v-2.727C46.946,23.632,48.551,22.028,50.53,22.028z"/>
<path fill-rule="evenodd" clip-rule="evenodd" fill="#47616E" d="M85.301,37.488c0-0.853-0.229-1.649-0.625-2.339L65.71,2.289
	C64.887,0.919,63.391,0,61.676,0c-0.007,0-0.013,0.001-0.02,0.001L61.654,0H23.838l-0.002,0.001C23.826,0.001,23.818,0,23.809,0
	c-1.848,0-3.443,1.067-4.213,2.617L0.827,35.159c-0.392,0.687-0.619,1.481-0.619,2.329c0,0.865,0.237,1.674,0.645,2.37L16.89,67.604
	l2.934,5.083c0.823,1.37,2.319,2.289,4.033,2.289c0.007,0,0.014-0.001,0.02-0.001l0.002,0.001h37.817l0.003-0.001
	c0.008,0,0.017,0.001,0.026,0.001c1.848,0,3.443-1.067,4.214-2.616l3.478-6.091l15.229-26.393
	C85.06,39.174,85.301,38.36,85.301,37.488z"/>
<g>
	<path fill-rule="evenodd" clip-rule="evenodd" fill="#47616E" d="M25.035,71.506c-1.132-0.002-2.22-0.62-2.841-1.655l-2.732-4.734
		L4.481,39.202c-0.307-0.526-0.468-1.117-0.468-1.713c0-0.585,0.155-1.167,0.448-1.681L21.988,5.416
		c0.609-1.22,1.774-1.944,3.07-1.944h35.288l0.026,0.003l0.102-0.004c1.155,0.001,2.243,0.619,2.866,1.654l17.705,30.677
		c0.298,0.52,0.45,1.087,0.45,1.686c0,0.603-0.163,1.198-0.472,1.72L66.793,63.871l-3.251,5.692c-0.602,1.205-1.75,1.926-3.03,1.94
		H25.216l-0.037-0.007L25.035,71.506z"/>
	<g>
		<path fill="#F1F2F2" d="M59.811,4.472l0.001,0.001h0.598l0.07,0c0.826,0.018,1.571,0.451,1.984,1.137l17.712,30.689
			c0.211,0.368,0.318,0.768,0.318,1.189c0,0.43-0.112,0.837-0.344,1.229L65.922,63.379l-3.249,5.689l-0.028,0.049l-0.025,0.051
			c-0.399,0.803-1.19,1.309-2.076,1.334l-0.005,0h-0.089l-0.558,0.001H26.188l-0.001-0.001h-1.064l-0.087,0
			c-0.819-0.022-1.558-0.454-1.967-1.137l-2.742-4.75L5.342,38.693c-0.218-0.374-0.329-0.779-0.329-1.205
			c0-0.418,0.106-0.817,0.311-1.177l17.53-30.396l0.031-0.053l0.027-0.055c0.399-0.803,1.19-1.309,2.076-1.334l0.005,0h0.089
			l0.558-0.001H59.811 M60.428,2.472c-0.006,0-0.012,0.001-0.019,0.001l-0.001-0.001H25.085l-0.002,0.001
			c-0.009,0-0.017-0.001-0.025-0.001c-1.726,0-3.216,0.997-3.936,2.444L3.592,35.312c-0.366,0.642-0.579,1.383-0.579,2.176
			c0,0.808,0.222,1.563,0.603,2.214l14.979,25.916l2.741,4.749c0.768,1.279,2.166,2.138,3.767,2.138c0.006,0,0.013-0.001,0.02-0.001
			l0.001,0.001h35.323l0.002-0.001c0.008,0,0.016,0.001,0.024,0.001c1.727,0,3.216-0.998,3.937-2.444l3.249-5.689l14.224-24.653
			c0.387-0.654,0.611-1.415,0.611-2.229c0-0.797-0.214-1.541-0.584-2.186L64.197,4.61C63.427,3.331,62.03,2.472,60.428,2.472
			L60.428,2.472z"/>
	</g>
</g>
<path fill="#F1F2F2" d="M50.738,22.028h4.016v-8.127h-8.707c-5.288,0-9.575,4.287-9.575,9.574v4.863h-6.868v8.127h6.868v25.026
	h10.683V36.465h7.6v-8.127h-7.6v-2.727C47.154,23.632,48.759,22.028,50.738,22.028z"/>
<path fill-rule="evenodd" clip-rule="evenodd" fill="#47616E" d="M175.134,37.488c0-0.853-0.23-1.649-0.625-2.339l-18.965-32.86
	C154.72,0.919,153.224,0,151.51,0c-0.007,0-0.014,0.001-0.021,0.001L151.488,0h-37.817l-0.002,0.001
	c-0.009,0-0.018-0.001-0.026-0.001c-1.849,0-3.443,1.067-4.214,2.617L90.661,35.159c-0.392,0.687-0.62,1.481-0.62,2.329
	c0,0.865,0.237,1.674,0.645,2.37l16.036,27.745l2.935,5.083c0.823,1.37,2.319,2.289,4.034,2.289c0.007,0,0.013-0.001,0.02-0.001
	l0.001,0.001h37.817l0.003-0.001c0.009,0,0.018,0.001,0.027,0.001c1.848,0,3.443-1.067,4.214-2.616l3.479-6.091l15.228-26.393
	C174.893,39.174,175.134,38.36,175.134,37.488z"/>
<g>
	<path fill-rule="evenodd" clip-rule="evenodd" fill="#47616E" d="M114.886,71.503c-1.181-0.017-2.247-0.632-2.86-1.652
		l-2.731-4.733L94.315,39.202c-0.307-0.525-0.468-1.116-0.468-1.713c0-0.587,0.154-1.168,0.447-1.68l17.528-30.393
		c0.609-1.219,1.774-1.943,3.07-1.943l35.313,0.003l0.101-0.004c1.157,0.001,2.245,0.619,2.867,1.654l17.706,30.678
		c0.294,0.513,0.45,1.096,0.45,1.686c0,0.602-0.164,1.197-0.473,1.721l-14.229,24.662l-3.251,5.693
		c-0.602,1.205-1.751,1.927-3.032,1.94l-0.343-0.029l-0.041,0.029L114.886,71.503z"/>
	<g>
		<path fill="#F1F2F2" d="M149.639,4.472l0.001,0.001h0.603l0.071,0c0.826,0.018,1.571,0.45,1.983,1.137l17.712,30.688
			c0.211,0.369,0.319,0.77,0.319,1.19c0,0.423-0.115,0.842-0.344,1.229l-14.229,24.661l-3.249,5.689l-0.028,0.049l-0.025,0.051
			c-0.4,0.804-1.192,1.31-2.079,1.334l-0.007,0h-0.085l-0.667,0.001h-33.83l-0.001-0.001h-0.829l-0.087,0
			c-0.819-0.023-1.557-0.455-1.967-1.137l-2.742-4.75L95.176,38.693c-0.218-0.373-0.329-0.778-0.329-1.205
			c0-0.419,0.106-0.818,0.311-1.177l17.53-30.396l0.031-0.053l0.027-0.055c0.403-0.81,1.205-1.318,2.101-1.334l0.01,0h0.059
			l0.471-0.001H149.639 M150.262,2.472c-0.006,0-0.013,0.001-0.019,0.001l-0.001-0.001h-35.323l-0.002,0.001
			c-0.008,0-0.016-0.001-0.025-0.001c-1.727,0-3.216,0.997-3.936,2.444l-17.53,30.396c-0.366,0.642-0.578,1.383-0.578,2.176
			c0,0.808,0.222,1.563,0.602,2.214l14.979,25.916l2.741,4.749c0.769,1.279,2.167,2.138,3.768,2.138
			c0.006,0,0.012-0.001,0.019-0.001l0.001,0.001h35.323l0.002-0.001c0.008,0,0.017,0.001,0.025,0.001
			c1.726,0,3.216-0.998,3.936-2.444l3.249-5.689l14.225-24.653c0.386-0.654,0.611-1.415,0.611-2.229
			c0-0.796-0.214-1.541-0.584-2.186L154.03,4.61C153.261,3.331,151.863,2.472,150.262,2.472L150.262,2.472z"/>
	</g>
</g>
<path fill-rule="evenodd" clip-rule="evenodd" fill="#F1F2F2" d="M132.588,17.14c-11.521,0-20.863,9.34-20.863,20.863
	c0,9.217,5.978,17.038,14.267,19.796c1.042,0.193,1.425-0.453,1.425-1.004c0-0.498-0.019-2.141-0.028-3.884
	c-5.804,1.262-7.028-2.461-7.028-2.461c-0.95-2.412-2.317-3.053-2.317-3.053c-1.892-1.295,0.143-1.269,0.143-1.269
	c2.095,0.147,3.198,2.151,3.198,2.151c1.861,3.189,4.881,2.267,6.071,1.733c0.188-1.348,0.728-2.269,1.324-2.79
	c-4.633-0.527-9.504-2.316-9.504-10.311c0-2.278,0.814-4.139,2.149-5.6c-0.217-0.525-0.931-2.647,0.202-5.521
	c0,0,1.753-0.561,5.739,2.139c1.664-0.462,3.449-0.694,5.222-0.703c1.773,0.008,3.56,0.24,5.227,0.703
	c3.981-2.7,5.731-2.139,5.731-2.139c1.136,2.874,0.421,4.996,0.205,5.521c1.338,1.461,2.146,3.322,2.146,5.6
	c0,8.013-4.88,9.777-9.526,10.294c0.749,0.647,1.416,1.917,1.416,3.863c0,2.791-0.024,5.038-0.024,5.725
	c0,0.556,0.375,1.206,1.433,1.001c8.285-2.762,14.255-10.58,14.255-19.793C153.451,26.48,144.11,17.14,132.588,17.14"/>
<path fill-rule="evenodd" clip-rule="evenodd" fill="#47616E" d="M265.093,37.488c0-0.853-0.23-1.649-0.625-2.339l-18.965-32.86
	C244.679,0.919,243.183,0,241.469,0c-0.007,0-0.014,0.001-0.021,0.001L241.447,0H203.63l-0.002,0.001
	c-0.009,0-0.017-0.001-0.026-0.001c-1.848,0-3.443,1.067-4.214,2.617L180.62,35.159c-0.392,0.687-0.62,1.481-0.62,2.329
	c0,0.865,0.237,1.674,0.645,2.37l16.036,27.745l2.935,5.083c0.823,1.37,2.319,2.289,4.034,2.289c0.007,0,0.013-0.001,0.02-0.001
	l0.001,0.001h37.817l0.003-0.001c0.009,0,0.018,0.001,0.027,0.001c1.848,0,3.443-1.067,4.214-2.616l3.479-6.091l15.228-26.393
	C264.852,39.174,265.093,38.36,265.093,37.488z"/>
<g>
	<path fill-rule="evenodd" clip-rule="evenodd" fill="#47616E" d="M204.845,71.503c-1.181-0.017-2.247-0.632-2.86-1.652
		l-2.731-4.733l-14.979-25.916c-0.307-0.526-0.468-1.117-0.468-1.713c0-0.587,0.154-1.168,0.447-1.68L201.78,5.416
		c0.609-1.219,1.774-1.943,3.07-1.943l35.312,0.003l0.101-0.004c1.157,0.001,2.245,0.619,2.867,1.654l17.706,30.678
		c0.294,0.513,0.45,1.096,0.45,1.686c0,0.602-0.164,1.197-0.473,1.721l-14.229,24.662l-3.251,5.693
		c-0.602,1.205-1.751,1.927-3.032,1.94l-0.343-0.029l-0.041,0.029L204.845,71.503z"/>
	<g>
		<path fill="#F1F2F2" d="M239.597,4.472l0.001,0.001h0.603l0.071,0c0.826,0.018,1.571,0.45,1.983,1.137l17.712,30.688
			c0.211,0.369,0.319,0.77,0.319,1.19c0,0.423-0.115,0.842-0.344,1.229l-14.229,24.661l-3.249,5.689l-0.028,0.049l-0.025,0.051
			c-0.4,0.804-1.192,1.31-2.079,1.334l-0.007,0h-0.085l-0.667,0.001h-33.993l-0.002-0.001h-0.665l-0.087,0
			c-0.819-0.023-1.557-0.455-1.967-1.137l-2.742-4.75l-14.983-25.924c-0.218-0.374-0.329-0.779-0.329-1.205
			c0-0.419,0.106-0.818,0.311-1.177l17.53-30.396l0.031-0.053l0.027-0.055c0.403-0.81,1.205-1.318,2.101-1.334l0.01,0h0.06
			l0.471-0.001H239.597 M240.221,2.472c-0.006,0-0.013,0.001-0.019,0.001L240.2,2.472h-35.323l-0.002,0.001
			c-0.008,0-0.016-0.001-0.024-0.001c-1.727,0-3.216,0.997-3.937,2.444l-17.53,30.396c-0.366,0.642-0.578,1.383-0.578,2.176
			c0,0.808,0.222,1.563,0.603,2.214l14.979,25.916l2.741,4.749c0.769,1.279,2.167,2.138,3.768,2.138
			c0.006,0,0.012-0.001,0.019-0.001l0.002,0.001h35.323l0.002-0.001c0.008,0,0.017,0.001,0.025,0.001
			c1.726,0,3.216-0.998,3.936-2.444l3.249-5.689l14.225-24.653c0.386-0.654,0.611-1.415,0.611-2.229
			c0-0.796-0.214-1.541-0.584-2.186L243.988,4.61C243.22,3.331,241.822,2.472,240.221,2.472L240.221,2.472z"/>
	</g>
</g>
<g>
	<path fill="#F1F2F2" d="M203.528,30.894h8.155v26.227h-8.155V30.894z M207.606,17.854c2.606,0,4.724,2.118,4.724,4.725
		c0,2.61-2.118,4.728-4.724,4.728c-2.613,0-4.726-2.118-4.726-4.728C202.88,19.973,204.993,17.854,207.606,17.854"/>
	<path fill="#F1F2F2" d="M216.795,30.894h7.82v3.582h0.111c1.088-2.061,3.748-4.235,7.713-4.235c8.249,0,9.772,5.43,9.772,12.495
		v14.386h-8.142V44.367c0-3.043-0.06-6.955-4.237-6.955c-4.242,0-4.889,3.313-4.889,6.734v12.975h-8.149V30.894z"/>
</g>
</svg>
